<svg width="696" height="696" viewBox="0 0 696 696" fill="none" xmlns="http://www.w3.org/2000/svg">
<g clip-path="url(#clip0_2_2)">
<rect width="696" height="696" transform="translate(696 696) rotate(180)" fill="#39FF14"/>
<path d="M466.912 427.624C466.912 431.72 464.565 433.768 459.872 433.768C455.008 433.768 452.576 431.72 452.576 427.624L452.576 374.632C452.576 367.635 454.667 362.771 458.848 360.04C463.029 357.309 467.851 355.944 473.312 355.944L487.904 355.944C491.061 355.944 492.64 357.949 492.64 361.96C492.811 365.971 491.232 367.976 487.904 367.976L474.336 367.976C471.264 367.976 469.259 368.573 468.32 369.768C467.381 370.963 466.912 372.627 466.912 374.76L466.912 427.624ZM518.055 428.008C518.055 432.019 515.708 434.024 511.015 434.024C506.236 434.024 503.847 432.019 503.847 428.008L503.847 336.232C503.847 332.221 506.236 330.216 511.015 330.216C515.708 330.216 518.055 332.221 518.055 336.232L518.055 428.008ZM534.817 367.976C531.745 367.976 530.124 365.971 529.953 361.96C529.953 357.949 531.574 355.944 534.817 355.944L579.233 355.944C581.964 355.944 584.097 356.413 585.633 357.352C587.254 358.205 588.15 359.4 588.321 360.936C588.406 362.301 588.364 363.667 588.193 365.032C588.108 366.397 587.809 367.421 587.297 368.104L548.001 420.968L584.225 420.968C587.297 420.968 588.833 422.973 588.833 426.984C589.004 429.032 588.662 430.568 587.809 431.592C586.956 432.531 585.761 433 584.225 433L538.273 433C532.726 433 529.74 431.379 529.313 428.136C529.057 425.149 529.356 422.717 530.209 420.84L569.633 367.976L534.817 367.976Z" fill="black"/>
<path d="M466.571 530.5L466.571 568C386.571 568 386.571 573 361.071 554.5C335.571 536 192.571 249 170.071 212.5C152.071 183.3 127.237 184 117.071 188L117.071 145.5C113.571 144.667 116.671 143 157.071 143C207.571 143 214.571 167 227.071 178C237.071 186.8 300.571 313 331.071 375L451.571 143L529.071 143L361.071 436.5C370.737 456 392.771 498.8 403.571 514C414.371 529.2 450.071 531.333 466.571 530.5Z" fill="black"/>
<path d="M236.5 560L236.5 434L310 560L236.5 560Z" fill="black"/>
</g>
<defs>
<clipPath id="clip0_2_2">
<rect width="696" height="696" fill="white" transform="translate(696 696) rotate(180)"/>
</clipPath>
</defs>
</svg>
